<svg width="34" height="34" viewBox="0 0 34 34" fill="none" xmlns="http://www.w3.org/2000/svg">
<path d="M1.55831 27.0157C0.934979 29.084 2.45079 31.1666 4.58996 31.1666H23.205C24.6783 31.1666 25.9391 30.175 26.2933 28.7441L31.0675 9.5766C31.2375 8.86827 31.1808 8.17404 30.9116 7.56487C30.4441 6.43154 29.325 5.60986 27.9791 5.60986H10.5542C9.16582 5.60986 7.91913 6.51665 7.52247 7.86249L3.79663 19.8474" stroke="#121212" stroke-width="1.5" stroke-miterlimit="10" stroke-linecap="round" stroke-linejoin="round"/>
<path d="M22.6667 31.1667H29.4384C31.2659 31.1667 32.6967 29.6225 32.5692 27.795L31.1667 8.5" stroke="#121212" stroke-width="1.5" stroke-miterlimit="10" stroke-linecap="round" stroke-linejoin="round"/>
<path d="M13.7134 9.03838L15.1867 2.91846" stroke="#121212" stroke-width="1.5" stroke-miterlimit="10" stroke-linecap="round" stroke-linejoin="round"/>
<path d="M23.2051 9.05258L24.5367 2.9043" stroke="#121212" stroke-width="1.5" stroke-miterlimit="10" stroke-linecap="round" stroke-linejoin="round"/>
<path d="M10.9084 17H22.2418" stroke="#E00800" stroke-width="1.5" stroke-miterlimit="10" stroke-linecap="round" stroke-linejoin="round"/>
<path d="M20.8249 22.6667H19.8333" stroke="#E00800" stroke-width="1.5" stroke-miterlimit="10" stroke-linecap="round" stroke-linejoin="round"/>
<path d="M9.4917 22.6667H15.5833" stroke="#E00800" stroke-width="1.5" stroke-miterlimit="10" stroke-linecap="round" stroke-linejoin="round"/>
</svg>
