<svg width="104" height="104" viewBox="0 0 104 104" fill="none" xmlns="http://www.w3.org/2000/svg">
<g id="message 1">
<circle id="Ellipse 39" cx="23.5" cy="36.5" r="19.5" fill="#E05D59"/>
<path id="Vector" d="M70.1269 13.6419C70.1269 14.4182 69.8185 15.1627 69.2696 15.7116C68.7207 16.2605 67.9762 16.5689 67.1999 16.5689C66.4236 16.5689 65.6791 16.2605 65.1301 15.7116C64.5812 15.1627 64.2728 14.4182 64.2728 13.6419C64.2728 12.8656 64.5812 12.1211 65.1301 11.5722C65.6791 11.0232 66.4236 10.7148 67.1999 10.7148C67.9762 10.7148 68.7207 11.0232 69.2696 11.5722C69.8185 12.1211 70.1269 12.8656 70.1269 13.6419ZM68.1017 13.6419C68.1017 13.4032 68.0069 13.1743 67.8382 13.0056C67.6694 12.8368 67.4405 12.742 67.2019 12.742C66.9632 12.742 66.7344 12.8368 66.5656 13.0056C66.3968 13.1743 66.302 13.4032 66.302 13.6419C66.302 13.8805 66.3968 14.1094 66.5656 14.2782C66.7344 14.4469 66.9632 14.5417 67.2019 14.5417C67.3201 14.5417 67.4371 14.5184 67.5462 14.4732C67.6554 14.428 67.7546 14.3617 67.8382 14.2782C67.9217 14.1946 67.988 14.0954 68.0332 13.9862C68.0785 13.8771 68.1017 13.76 68.1017 13.6419Z" fill="#E00800"/>
<path id="Vector_2" d="M58.0633 17.7957C58.0504 17.7807 58.0345 17.7684 58.0166 17.7598C57.9988 17.7512 57.9793 17.7463 57.9595 17.7456C57.9397 17.7448 57.9199 17.7482 57.9014 17.7554C57.8829 17.7626 57.8661 17.7736 57.8521 17.7876C57.3991 18.2385 56.7694 19.0287 56.2047 19.1729C55.5751 19.3334 54.8519 18.6529 55.0226 17.9704C55.1708 17.3874 56.8426 15.9473 57.2976 15.5065C57.4705 15.3381 57.7013 15.2423 57.9424 15.2389C58.1836 15.2355 58.4166 15.3247 58.5935 15.4882C59.2557 16.0956 61.7846 17.9846 60.4704 18.9921C59.5807 19.6726 58.5935 18.3949 58.0633 17.7957Z" fill="#E00800"/>
<path id="Vector_3" d="M94.2256 21.1434C95.4972 22.7345 96.4593 24.4699 97.112 26.3495C97.4478 27.4788 97.6808 28.6339 97.8108 29.8148C98.0207 32.3552 97.6395 34.8245 96.6672 37.2228C95.5757 39.7144 93.971 41.8019 91.8531 43.4851C86.4642 47.2998 80.474 47.8056 74.6505 44.7038C74.6085 44.6808 74.5692 44.6842 74.5326 44.714L64.3175 52.5709C64.3099 52.5763 64.3038 52.5835 64.2995 52.5918C64.2953 52.6001 64.2931 52.6093 64.2931 52.6186C64.2931 52.6279 64.2953 52.6371 64.2995 52.6454C64.3038 52.6537 64.3099 52.6609 64.3175 52.6663L90.7989 73.0134C90.8034 73.0168 90.8088 73.0188 90.8144 73.0194C90.8201 73.0199 90.8257 73.0188 90.8308 73.0163C90.8359 73.0137 90.8401 73.0098 90.8431 73.005C90.8461 73.0002 90.8476 72.9947 90.8476 72.989C90.8476 64.8342 90.8476 56.6814 90.8476 48.5307C90.8476 47.7893 91.0995 47.312 91.8592 47.2368L91.975 47.2653C92.6697 47.4054 92.8647 47.8848 92.8647 48.5754C92.8633 53.659 92.8613 58.7459 92.8586 63.8362L92.8972 70.2834L92.8829 71.6768C92.9358 73.7473 92.9006 75.2119 92.7773 76.0704C92.6649 76.8531 92.2607 77.6555 91.5647 78.4774C90.5165 79.6149 89.2619 80.1837 87.8008 80.1837C73.8569 80.1837 59.9131 80.1837 45.9692 80.1837C45.934 80.2324 45.8615 80.2521 45.7519 80.2426C45.6476 80.2033 45.5806 80.1837 45.5508 80.1837C36.096 80.185 26.6419 80.1844 17.1884 80.1817C15.1125 80.1817 13.7861 79.9359 12.4495 78.4998L11.8787 77.799C11.1312 76.3121 11.1373 75.461 11.1089 73.5842L11.1109 65.2662V43.7878C11.1285 39.7022 11.1285 35.5991 11.1109 31.4784C11.0987 28.6468 11.7406 26.2459 14.6656 25.3338C15.3129 25.1334 16.3793 25.0332 17.8648 25.0332C32.697 25.0359 47.5285 25.0366 62.3594 25.0353C62.66 25.0353 63.0263 25.0935 63.4583 25.2099L63.8422 25.9676C63.7792 26.7923 63.3059 27.0665 62.5015 27.0665C47.5651 27.0651 32.6286 27.0658 17.6922 27.0685C15.4497 27.0685 13.8369 27.2432 13.2315 29.5446C13.2231 29.5761 13.2242 29.6094 13.2347 29.6405C13.2452 29.6715 13.2646 29.6989 13.2904 29.7193C25.8815 39.4003 38.4664 49.0676 51.0453 58.7215C51.6364 59.1745 52.1381 59.3735 52.7536 58.8982C59.4228 53.7673 66.0853 48.6438 72.7411 43.5278C72.7516 43.5194 72.7602 43.5087 72.7661 43.4966C72.7719 43.4845 72.775 43.4712 72.775 43.4577C72.775 43.4442 72.7719 43.4309 72.7661 43.4187C72.7602 43.4066 72.7516 43.396 72.7411 43.3876C67.4822 39.2053 65.5058 32.4046 67.6914 25.9412C69.7822 20.6301 73.6531 17.2874 79.304 15.9129C85.2394 15.0083 90.2132 16.7518 94.2256 21.1434ZM95.8242 31.196C95.8242 27.6178 94.4028 24.1862 91.8726 21.6561C89.3425 19.1259 85.9108 17.7045 82.3326 17.7045C78.7544 17.7045 75.3228 19.1259 72.7927 21.6561C70.2625 24.1862 68.8411 27.6178 68.8411 31.196C68.8411 34.7742 70.2625 38.2059 72.7927 40.736C75.3228 43.2662 78.7544 44.6876 82.3326 44.6876C85.9108 44.6876 89.3425 43.2662 91.8726 40.736C94.4028 38.2059 95.8242 34.7742 95.8242 31.196ZM13.2539 32.2543C13.2445 32.247 13.2333 32.2426 13.2215 32.2414C13.2096 32.2402 13.1977 32.2424 13.1871 32.2477C13.1765 32.253 13.1676 32.2613 13.1615 32.2714C13.1553 32.2815 13.1521 32.2932 13.1523 32.3051V72.926C13.1521 72.9379 13.1553 72.9496 13.1615 72.9597C13.1676 72.9699 13.1765 72.9781 13.1871 72.9834C13.1977 72.9887 13.2096 72.9909 13.2215 72.9897C13.2333 72.9886 13.2445 72.9841 13.2539 72.9768L39.6967 52.6663C39.7047 52.6605 39.7112 52.6529 39.7156 52.644C39.7201 52.6352 39.7224 52.6255 39.7224 52.6156C39.7224 52.6057 39.7201 52.5959 39.7156 52.5871C39.7112 52.5783 39.7047 52.5706 39.6967 52.5648L13.2539 32.2543ZM90.6973 75.4956L62.6864 53.9745C62.6268 53.9284 62.5672 53.9277 62.5076 53.9724C59.9063 55.9346 57.3178 57.9158 54.7422 59.9159C52.977 61.287 51.7176 61.7867 49.8164 60.3282C47.039 58.2008 44.2745 56.0822 41.5228 53.9724C41.4949 53.951 41.4608 53.9394 41.4259 53.9394C41.3909 53.9394 41.3572 53.951 41.3298 53.9724L13.2965 75.5078C13.2653 75.5319 13.242 75.5648 13.2297 75.6021C13.2174 75.6394 13.2166 75.6794 13.2275 75.717C13.8694 77.9696 15.3826 78.1524 17.6129 78.1524C40.6703 78.1524 63.7277 78.1524 86.7851 78.1524C88.7981 78.1524 90.2667 77.7482 90.7623 75.6784C90.7799 75.6039 90.7583 75.543 90.6973 75.4956Z" fill="#121212"/>
<path id="Vector_4" d="M95.8242 31.1962C95.8242 34.7743 94.4028 38.206 91.8726 40.7361C89.3424 43.2663 85.9108 44.6877 82.3326 44.6877C78.7544 44.6877 75.3228 43.2663 72.7926 40.7361C70.2625 38.206 68.8411 34.7743 68.8411 31.1962C68.8411 27.618 70.2625 24.1863 72.7926 21.6562C75.3228 19.126 78.7544 17.7046 82.3326 17.7046C85.9108 17.7046 89.3424 19.126 91.8726 21.6562C94.4028 24.1863 95.8242 27.618 95.8242 31.1962ZM76.0703 25.3868C75.9051 25.6278 75.8529 25.8316 75.9139 25.9982C76.1969 26.7782 76.9044 28.4743 78.0365 31.0865C78.0626 31.1476 78.0633 31.2169 78.0386 31.2794C77.417 32.7744 76.7921 34.2674 76.1637 35.7583C75.989 36.1714 75.9173 36.4876 75.9484 36.7069C76.0297 37.2899 76.7203 37.7287 77.3073 37.4808C81.3888 35.7502 85.4709 34.0216 89.5537 32.2951C90.7968 31.769 90.7136 30.6396 89.5172 30.1257C85.7336 28.5034 81.9474 26.8879 78.1584 25.2791C77.2443 24.8912 76.6817 24.491 76.0703 25.3868Z" fill="#E00800"/>
<path id="Vector_5" d="M76.0703 25.3865C76.6817 24.4907 77.2444 24.8908 78.1584 25.2788C81.9474 26.8876 85.7337 28.5031 89.5172 30.1254C90.7136 30.6393 90.7969 31.7687 89.5538 32.2948C85.4709 34.0213 81.3888 35.7499 77.3073 37.4805C76.7203 37.7283 76.0297 37.2896 75.9484 36.7066C75.9173 36.4873 75.9891 36.1711 76.1638 35.758C76.7921 34.2671 77.417 32.7741 78.0386 31.2791C78.0633 31.2166 78.0626 31.1473 78.0366 31.0862C76.9045 28.474 76.1969 26.7779 75.9139 25.9979C75.853 25.8313 75.9051 25.6275 76.0703 25.3865Z" fill="white"/>
<path id="Vector_6" d="M75.3168 67.2344H68.8533C68.2722 67.2344 67.8011 67.7055 67.8011 68.2866V72.6984C67.8011 73.2795 68.2722 73.7506 68.8533 73.7506H75.3168C75.8979 73.7506 76.369 73.2795 76.369 72.6984V68.2866C76.369 67.7055 75.8979 67.2344 75.3168 67.2344Z" fill="white"/>
<path id="Vector_7" d="M63.3506 67.5918H57.7037C57.1607 67.5918 56.7206 68.032 56.7206 68.5749V68.6359C56.7206 69.1788 57.1607 69.619 57.7037 69.619H63.3506C63.8935 69.619 64.3337 69.1788 64.3337 68.6359V68.5749C64.3337 68.032 63.8935 67.5918 63.3506 67.5918Z" fill="#121212"/>
<path id="Vector_8" d="M63.371 71.7378H43.4606C42.939 71.7378 42.5161 72.1607 42.5161 72.6823V72.7961C42.5161 73.3177 42.939 73.7406 43.4606 73.7406H63.371C63.8926 73.7406 64.3155 73.3177 64.3155 72.7961V72.6823C64.3155 72.1607 63.8926 71.7378 63.371 71.7378Z" fill="#121212"/>
<path id="Vector_9" d="M85.9564 86.4945C86.6409 85.8709 87.2401 84.9467 88.1948 85.8851C88.8516 86.5324 89.5016 87.1851 90.1448 87.8432C90.7339 88.4465 89.9925 89.5434 89.1942 89.4113C88.5807 89.3098 87.9531 88.4749 87.4717 88.0098C87.4202 87.9597 87.3688 87.9597 87.3173 88.0098C86.8968 88.4181 86.1108 89.4113 85.5278 89.4317C84.9123 89.452 84.3883 88.9523 84.4776 88.3307C84.565 87.7071 85.4831 86.9271 85.9564 86.4945Z" fill="#E00800"/>
<path id="Vector_10" d="M35.4717 87.0957C36.0019 87.6198 37.4217 88.7756 37.3425 89.4581C37.2754 90.0451 36.7615 90.4859 36.1623 90.3701C35.6261 90.2645 34.9334 89.3951 34.5129 89.0051C34.4963 88.9897 34.4767 88.9779 34.4553 88.9703C34.4339 88.9627 34.4112 88.9596 34.3886 88.9611C34.3659 88.9626 34.3439 88.9688 34.3237 88.9791C34.3035 88.9895 34.2857 89.0039 34.2712 89.0214C33.6009 89.8257 31.9129 91.5361 31.3929 89.2875C32.093 88.2813 32.8473 87.4431 33.6558 86.7728C34.2733 86.2582 34.8786 86.3659 35.4717 87.0957Z" fill="#E00800"/>
<path id="Vector_11" d="M47.3179 90.3543C47.3179 90.7387 47.2422 91.1193 47.0951 91.4744C46.948 91.8295 46.7324 92.1522 46.4606 92.424C46.1888 92.6958 45.8661 92.9114 45.511 93.0585C45.1559 93.2056 44.7753 93.2813 44.3909 93.2813C43.6146 93.2813 42.8701 92.9729 42.3212 92.424C41.7722 91.8751 41.4639 91.1306 41.4639 90.3543C41.4639 89.578 41.7722 88.8335 42.3212 88.2846C42.8701 87.7356 43.6146 87.4272 44.3909 87.4272C44.7753 87.4272 45.1559 87.503 45.511 87.6501C45.8661 87.7971 46.1888 88.0128 46.4606 88.2846C46.7324 88.5564 46.948 88.879 47.0951 89.2342C47.2422 89.5893 47.3179 89.9699 47.3179 90.3543ZM45.2948 90.3543C45.2948 90.1151 45.1998 89.8857 45.0307 89.7166C44.8615 89.5474 44.6321 89.4524 44.3929 89.4524C44.1537 89.4524 43.9243 89.5474 43.7552 89.7166C43.5861 89.8857 43.4911 90.1151 43.4911 90.3543C43.4911 90.5935 43.5861 90.8229 43.7552 90.992C43.9243 91.1611 44.1537 91.2562 44.3929 91.2562C44.6321 91.2562 44.8615 91.1611 45.0307 90.992C45.1998 90.8229 45.2948 90.5935 45.2948 90.3543Z" fill="#E00800"/>
</g>
</svg>
