<svg width="46" height="46" viewBox="0 0 46 46" fill="none" xmlns="http://www.w3.org/2000/svg">
<g id="timer (2) 1">
<path id="Vector" d="M24.2018 5.31118V3.30634C24.2018 2.96745 24.0672 2.64245 23.8275 2.40282C23.5879 2.16319 23.2629 2.02856 22.924 2.02856C22.5851 2.02856 22.2601 2.16319 22.0205 2.40282C21.7809 2.64245 21.6462 2.96745 21.6462 3.30634V5.32268C11.6055 6.02034 3.64746 14.4058 3.64746 24.621C3.64746 35.2898 12.3293 43.9716 23 43.9716C33.6708 43.9716 42.3526 35.2898 42.3526 24.621C42.3526 14.3546 34.3148 5.93409 24.2018 5.31118ZM23 41.4161C13.7381 41.4161 6.20302 33.881 6.20302 24.621C6.20302 15.3596 13.7381 7.8252 23 7.8252C32.262 7.8252 39.7971 15.3596 39.7971 24.621C39.7971 33.881 32.262 41.4161 23 41.4161Z" fill="#7C7C7A"/>
<path id="Vector_2" d="M16.4403 36.2179C12.269 33.8521 9.67768 29.4073 9.67768 24.6201C9.67768 24.2662 9.3921 23.9812 9.03879 23.9812C8.68549 23.9812 8.3999 24.2662 8.3999 24.6201C8.3999 29.8667 11.2398 34.7369 15.8104 37.3302C15.9579 37.4137 16.1325 37.4352 16.2959 37.39C16.4593 37.3448 16.598 37.2365 16.6815 37.089C16.765 36.9415 16.7866 36.7669 16.7413 36.6035C16.6961 36.4401 16.5878 36.3014 16.4403 36.2179ZM19.9248 37.9704C19.6774 37.9058 19.4318 37.8347 19.1882 37.757C19.0278 37.709 18.8549 37.7258 18.7068 37.804C18.5587 37.8821 18.4472 38.0153 18.3963 38.1748C18.3454 38.3343 18.3592 38.5074 18.4346 38.6569C18.5101 38.8064 18.6412 38.9203 18.7997 38.9741C19.0655 39.0597 19.3326 39.1363 19.6054 39.206C19.7694 39.2483 19.9435 39.2237 20.0894 39.1377C20.2354 39.0517 20.3411 38.9112 20.3835 38.7472C20.4046 38.6661 20.4094 38.5816 20.3977 38.4986C20.386 38.4156 20.358 38.3358 20.3154 38.2636C20.2728 38.1914 20.2164 38.1284 20.1493 38.078C20.0823 38.0277 20.006 37.9911 19.9248 37.9704ZM39.4876 11.9765C39.7275 12.2158 40.0527 12.3499 40.3915 12.3494C40.7304 12.349 41.0551 12.2139 41.2944 11.974C41.5336 11.734 41.6678 11.4089 41.6673 11.07C41.6668 10.7312 41.5317 10.4064 41.2918 10.1672L37.9741 6.85774C37.8553 6.73915 37.7144 6.64513 37.5593 6.58106C37.4042 6.51699 37.238 6.48414 37.0702 6.48438C36.9023 6.48461 36.7362 6.51794 36.5813 6.58244C36.4264 6.64695 36.2857 6.74137 36.1673 6.8603C35.9282 7.10034 35.7942 7.42545 35.7947 7.76422C35.7952 8.10299 35.9301 8.42772 36.1698 8.66708L39.4876 11.9765ZM24.2009 24.3825V14.1673C24.2009 13.8284 24.0663 13.5034 23.8266 13.2637C23.587 13.0241 23.262 12.8895 22.9231 12.8895C22.5842 12.8895 22.2592 13.0241 22.0196 13.2637C21.78 13.5034 21.6453 13.8284 21.6453 14.1673V24.9345C21.6453 25.2865 21.8287 25.6219 22.0843 25.8628L25.8237 29.3575C26.0709 29.5901 26.3859 29.7063 26.7009 29.7063C26.872 29.7066 27.0413 29.671 27.1979 29.6019C27.3545 29.5328 27.4948 29.4317 27.61 29.3051C28.0962 28.7914 28.0528 27.9832 27.5397 27.499L24.2009 24.3825Z" fill="#7C7C7A"/>
</g>
</svg>
