<svg width="34" height="34" viewBox="0 0 34 34" fill="none" xmlns="http://www.w3.org/2000/svg">
<path d="M19.8335 22.6666C19.8335 25.1741 18.7427 27.4408 17.0002 28.9849C15.4985 30.3449 13.5152 31.1666 11.3335 31.1666C6.64433 31.1666 2.8335 27.3558 2.8335 22.6666C2.8335 18.7566 5.49683 15.4416 9.09516 14.4641C10.0727 16.9291 12.1693 18.8274 14.7618 19.5358C15.4702 19.7341 16.221 19.8333 17.0002 19.8333C17.7793 19.8333 18.5302 19.7341 19.2385 19.5358C19.621 20.4991 19.8335 21.5616 19.8335 22.6666Z" stroke="#121212" stroke-width="1.5" stroke-linecap="round" stroke-linejoin="round"/>
<path d="M10.6533 5.68075C12.2117 3.93825 14.4783 2.83325 17 2.83325C21.6892 2.83325 25.5 6.64409 25.5 11.3333C25.5 12.4383 25.2875 13.5008 24.905 14.4641C23.9275 16.9291 21.8308 18.8274 19.2383 19.5358C18.53 19.7341 17.7792 19.8333 17 19.8333C16.2208 19.8333 15.47 19.7341 14.7617 19.5358C12.1692 18.8274 10.0725 16.9291 9.095 14.4641C8.7125 13.5008 8.5 12.4383 8.5 11.3333" stroke="#E00800" stroke-width="1.5" stroke-linecap="round" stroke-linejoin="round"/>
<path d="M31.1667 22.6666C31.1667 27.3558 27.3558 31.1666 22.6667 31.1666C20.485 31.1666 18.5017 30.3449 17 28.9849C18.7425 27.4408 19.8333 25.1741 19.8333 22.6666C19.8333 21.5616 19.6208 20.4991 19.2383 19.5358C21.8308 18.8274 23.9275 16.9291 24.905 14.4641C28.5033 15.4416 31.1667 18.7566 31.1667 22.6666Z" stroke="#121212" stroke-width="1.5" stroke-linecap="round" stroke-linejoin="round"/>
</svg>
