<svg width="34" height="34" viewBox="0 0 34 34" fill="none" xmlns="http://www.w3.org/2000/svg">
<g id="vuesax/broken/star">
<g id="star">
<g id="Group">
<path id="Vector" d="M30.2033 16.8724C31.8608 15.2149 31.3225 13.5433 29.0133 13.1466L25.4008 12.5516C24.7916 12.4524 24.0691 11.9141 23.7999 11.3616L21.8025 7.36659C20.7258 5.19909 18.9549 5.19909 17.8783 7.36659L15.8808 11.3616C15.6116 11.9141 14.8891 12.4383 14.2799 12.5516L10.6674 13.1466C8.35828 13.5291 7.81995 15.2008 9.47745 16.8724L12.2966 19.6916C12.7641 20.1591 13.0333 21.0799 12.8774 21.7458L12.0699 25.2308C11.4324 27.9791 12.9058 29.0558 15.3283 27.6108L18.7141 25.5991C19.3233 25.2308 20.3433 25.2308 20.9525 25.5991L24.3383 27.6108C26.7608 29.0416 28.2341 27.9791 27.5966 25.2308L26.7891 21.7458" stroke="#121212" stroke-width="1.5" stroke-linecap="round" stroke-linejoin="round"/>
</g>
<path id="Vector_2" d="M11.3333 7.08325H2.83325" stroke="#E00800" stroke-width="1.5" stroke-linecap="round" stroke-linejoin="round"/>
<path id="Vector_3" d="M7.08325 26.9167H2.83325" stroke="#121212" stroke-width="1.5" stroke-linecap="round" stroke-linejoin="round"/>
<path id="Vector_4" d="M4.24992 17H2.83325" stroke="#E00800" stroke-width="1.5" stroke-linecap="round" stroke-linejoin="round"/>
</g>
</g>
</svg>
