<svg width="31" height="31" viewBox="0 0 31 31" fill="none" xmlns="http://www.w3.org/2000/svg">
<circle cx="15.5" cy="15.5" r="14.5" stroke="#F46A37" stroke-width="2"/>
<path d="M10.1611 10.1611C10.3594 9.96283 10.6713 9.94757 10.8871 10.1153L10.9389 10.1611L20.8389 20.0611C21.0537 20.2759 21.0537 20.6241 20.8389 20.8389C20.6406 21.0372 20.3287 21.0524 20.1129 20.8847L20.0611 20.8389L10.1611 10.9389C9.9463 10.7241 9.9463 10.3759 10.1611 10.1611Z" fill="#F46A37" stroke="#F46A37"/>
<path d="M20.0611 10.1611C20.2759 9.9463 20.6241 9.9463 20.8389 10.1611C21.0372 10.3594 21.0524 10.6713 20.8847 10.8871L20.8389 10.9389L10.9389 20.8389C10.7241 21.0537 10.3759 21.0537 10.1611 20.8389C9.96283 20.6406 9.94757 20.3287 10.1153 20.1129L10.1611 20.0611L20.0611 10.1611Z" fill="#F46A37" stroke="#F46A37"/>
</svg>
